<svg width="376" height="376" viewBox="0 0 376 376" fill="none" xmlns="http://www.w3.org/2000/svg">
<rect width="376" height="376" fill="#FFFAF6" fill-opacity="0.7"/>
<path d="M159.069 86.8929L131.348 99.6446L112.599 122.225C98.0827 139.664 93.8993 145.007 94.353 145.511C94.7058 145.964 96.369 146.166 99.8972 146.166C104.534 146.166 104.988 146.065 106.097 144.906L107.357 143.696L107.407 155.137C107.458 161.438 107.659 179.482 107.81 195.308L108.113 224.037H187.748H267.384L267.686 192.536C267.837 175.197 268.039 157.153 268.089 152.365L268.14 143.696L269.4 144.906C270.508 146.065 270.962 146.166 275.599 146.166C279.127 146.166 280.791 145.964 281.143 145.511C281.597 145.007 277.414 139.714 262.898 122.225L244.098 99.6446L216.225 86.8425C200.903 79.8366 188 74.0907 187.547 74.1411C187.093 74.1411 174.291 79.887 159.069 86.8929ZM219.905 90.5218L242.989 101.056L258.261 119.453C266.678 129.583 274.742 139.261 276.154 140.974L278.825 144.15H274.843L270.912 144.099L254.077 124.493L237.243 104.886L213.1 94.5036C199.845 88.8082 188.655 84.02 188.303 83.8688C187.95 83.7175 176.559 88.4049 163.001 94.2516L138.253 104.886L121.419 124.493L104.585 144.099L100.653 144.15H96.6715L98.8891 141.529C100.048 140.118 108.113 130.44 116.732 120.007L132.457 101.106L160.077 88.4553L187.748 75.754L192.284 77.8709C194.804 79.0301 207.203 84.7256 219.905 90.5218ZM186.74 87.2961C186.891 87.9513 186.942 91.2275 186.891 94.6548L186.74 100.854L184.119 101.762C180.944 102.82 178.323 104.786 176.357 107.507L174.896 109.523L174.996 124.946L175.148 140.37L180.843 140.521L186.488 140.672V147.426V154.23H177.012H167.486L167.134 124.694C166.932 108.415 166.932 94.9572 167.184 94.7052C167.587 94.302 185.329 86.3385 186.085 86.2377C186.286 86.1873 186.589 86.6913 186.74 87.2961ZM198.736 90.3202L208.312 94.4532L208.01 108.062C207.808 115.521 207.657 128.979 207.657 137.95V154.23H198.081H188.504V147.426V140.672L194.452 140.521L200.349 140.37L200.5 125.35C200.601 111.388 200.55 110.229 199.643 108.465C197.829 104.987 193.847 101.862 190.167 101.056L188.504 100.703V93.4452C188.504 89.4634 188.655 86.1873 188.857 86.1873C189.059 86.1873 193.494 88.0521 198.736 90.3202ZM165.319 124.745V154.18L161.186 154.331L157.003 154.482L156.852 188.604L156.751 222.777H151.055H145.31L145.007 198.483C144.806 185.127 144.654 158.414 144.654 139.16V104.08L154.886 99.695C160.481 97.2757 165.118 95.31 165.218 95.2596C165.269 95.2596 165.319 108.515 165.319 124.745ZM220.762 99.7454L230.086 103.778L230.237 127.87C230.338 141.126 230.237 167.889 230.036 187.344L229.733 222.777H224.239H218.745L218.645 188.604L218.493 154.482L214.108 154.331L209.673 154.18V124.694C209.673 96.6205 209.723 95.2092 210.58 95.4612C211.084 95.6125 215.671 97.5781 220.762 99.7454ZM143.092 181.599L143.142 222.777L134.473 222.676L125.753 222.525L125.602 172.476L125.501 122.426L132.356 114.513C136.136 110.179 139.916 106.247 140.773 105.743L142.386 104.937L142.689 122.628C142.89 132.406 143.041 158.918 143.092 181.599ZM234.975 105.995C235.983 106.6 239.662 110.431 243.14 114.513L249.491 121.872L249.39 172.224L249.239 222.525L240.57 222.676L231.85 222.777V185.379C231.85 145.107 232.354 104.836 232.808 104.836C232.959 104.836 233.967 105.34 234.975 105.995ZM259.269 133.212L266.123 141.176L266.023 181.851L265.871 222.525L258.462 222.676L251.003 222.827V182.052C251.003 141.781 251.305 124.09 252.011 124.846C252.212 125.047 255.489 128.827 259.269 133.212ZM123.939 183.111L123.989 222.827L116.832 222.676L109.625 222.525L109.474 181.851L109.373 141.226L116.278 133.162L123.233 125.148L123.536 134.271C123.737 139.261 123.889 161.236 123.939 183.111ZM217.233 157.002C217.233 157.657 215.923 157.758 208.816 157.809C204.129 157.809 190.873 157.96 179.331 158.061C158.464 158.262 158.263 158.262 158.263 157.254C158.263 156.246 158.464 156.246 187.748 156.246C213.604 156.246 217.233 156.347 217.233 157.002ZM165.521 174.643L171.871 189.461L165.722 203.423C162.295 211.134 159.221 217.485 158.868 217.636C158.414 217.787 158.263 211.689 158.263 188.806C158.263 172.224 158.464 159.774 158.717 159.774C158.969 159.774 162.043 166.478 165.521 174.643ZM184.875 160.228C183.565 163.655 173.132 186.488 172.88 186.488C172.627 186.488 163.202 165.067 161.438 160.48C161.237 159.875 163.101 159.774 173.132 159.774C179.684 159.774 184.976 159.976 184.875 160.228ZM214.008 160.631C212.244 165.167 202.818 186.488 202.566 186.488C202.314 186.488 192.083 164.008 190.621 160.228C190.52 159.976 195.812 159.774 202.365 159.774C213.453 159.774 214.31 159.825 214.008 160.631ZM217.233 188.705C217.233 205.036 217.032 217.787 216.78 217.938C216.528 218.09 213.453 211.789 209.975 203.876L203.574 189.562L209.975 174.643C213.453 166.478 216.528 159.774 216.78 159.774C217.032 159.774 217.233 172.173 217.233 188.705ZM186.74 217.686C186.236 218.14 185.782 217.132 179.684 202.969L173.888 189.461L180.339 174.996L186.74 160.48L186.891 188.907C186.942 204.582 186.891 217.535 186.74 217.686ZM195.51 175.752L201.609 189.461L196.115 202.213C189.411 217.787 189.462 217.737 188.907 217.737C188.706 217.737 188.504 213.15 188.504 207.505C188.504 196.215 189.109 161.69 189.311 161.891C189.361 161.992 192.133 168.192 195.51 175.752ZM183.766 217.586C183.666 217.686 178.625 217.686 172.527 217.636L161.438 217.485L165.924 207.404C168.394 201.86 170.964 196.064 171.67 194.552L172.93 191.78L178.424 204.582C181.498 211.638 183.867 217.485 183.766 217.586ZM208.615 205.338C211.689 212.193 214.209 217.989 214.209 218.14C214.209 218.442 192.133 217.989 191.78 217.636C191.629 217.535 193.998 211.739 196.972 204.783C199.945 197.828 202.516 192.284 202.718 192.435C202.919 192.637 205.591 198.433 208.615 205.338ZM216.981 221.265V222.525L187.899 222.676L158.767 222.777V221.265V219.753L187.899 219.854L216.981 220.005V221.265Z" fill="#706457"/>
<path d="M150.854 251.558C146.671 252.818 143.697 258.463 144.352 263.956C145.008 269.753 148.082 273.079 153.173 273.533C157.154 273.886 160.279 272.474 162.043 269.45C163.858 266.325 163.707 265.62 161.287 265.62C159.574 265.62 159.171 265.821 158.515 267.132C157.608 268.896 156.348 269.652 154.231 269.652C150.753 269.652 148.989 267.182 149.04 262.293C149.09 257.505 150.854 255.086 154.382 255.035C156.247 255.035 158.767 256.749 158.767 258.059C158.767 258.311 159.775 258.563 161.035 258.563C162.9 258.563 163.304 258.412 163.304 257.606C163.304 256.245 161.237 253.473 159.423 252.364C157.507 251.255 153.122 250.852 150.854 251.558Z" fill="#706457"/>
<path d="M69.0508 262.343V273.18H76.6111H84.1714V271.164V269.148H78.8792H73.587V260.327V251.507H71.3189H69.0508V262.343Z" fill="#706457"/>
<path d="M89.2109 262.343V273.18H91.479H93.7471V262.343V251.507H91.479H89.2109V262.343Z" fill="#706457"/>
<path d="M100.301 262.343V273.18H107.861H115.421V271.164V269.148H110.129H104.837V260.327V251.507H102.569H100.301V262.343Z" fill="#706457"/>
<path d="M127.265 252.112C125.602 256.446 119.957 272.524 119.957 272.776C119.957 273.028 120.965 273.18 122.175 273.18C124.342 273.18 124.443 273.129 125.098 271.012L125.854 268.896L129.886 268.744L133.918 268.593L134.574 270.912L135.229 273.18H137.699C140.067 273.18 140.168 273.129 139.815 272.02C139.614 271.416 137.951 266.577 136.086 261.335L132.658 251.759L130.088 251.608C128.324 251.507 127.417 251.658 127.265 252.112ZM131.499 261.033C132.054 262.847 132.558 264.511 132.558 264.712C132.558 264.914 131.449 265.115 130.037 265.115C128.425 265.115 127.517 264.914 127.517 264.511C127.517 263.25 129.735 257.051 130.088 257.404C130.239 257.656 130.894 259.269 131.499 261.033Z" fill="#706457"/>
<path d="M178.525 252.112C178.676 252.464 180.339 257.353 182.255 262.948L185.732 273.18H187.849C189.865 273.18 189.966 273.129 190.773 270.76C193.847 261.99 197.073 252.313 197.073 251.96C197.073 251.708 196.065 251.507 194.906 251.507H192.688L190.521 258.916C189.361 263.049 188.253 266.527 188.051 266.779C187.849 266.98 186.69 263.603 185.43 259.319L183.212 251.507H180.743C179.029 251.507 178.374 251.708 178.525 252.112Z" fill="#706457"/>
<path d="M206.396 252.112C204.733 256.446 199.088 272.524 199.088 272.776C199.088 273.028 200.096 273.18 201.306 273.18C203.473 273.18 203.574 273.129 204.229 271.012L204.985 268.896L209.017 268.744L213.049 268.593L213.705 270.912L214.36 273.18H216.829C219.198 273.18 219.299 273.129 218.946 272.02C218.745 271.416 217.081 266.577 215.217 261.335L211.789 251.759L209.219 251.608C207.455 251.507 206.547 251.658 206.396 252.112ZM210.63 261.033C211.184 262.847 211.688 264.511 211.688 264.712C211.688 264.914 210.58 265.115 209.168 265.115C207.555 265.115 206.648 264.914 206.648 264.511C206.648 263.25 208.866 257.051 209.219 257.404C209.37 257.656 210.025 259.269 210.63 261.033Z" fill="#706457"/>
<path d="M224.289 262.343V273.18H231.849H239.41V271.164V269.148H234.117H228.825V260.327V251.507H226.557H224.289V262.343Z" fill="#706457"/>
<path d="M245.459 262.343V273.18H253.019H260.58V271.164V269.148H255.287H249.995V260.327V251.507H247.727H245.459V262.343Z" fill="#706457"/>
<path d="M266.123 262.343V273.18H274.187H282.252V271.164V269.148H276.455H270.659V266.375V263.603H275.951H281.244V261.839V260.075H275.951H270.659V257.807V255.539H276.203H281.748V253.523V251.507H273.935H266.123V262.343Z" fill="#706457"/>
<path d="M286.787 251.759C286.787 251.91 288.4 254.833 290.315 258.311L293.843 264.611V268.896V273.18H296.112H298.38V269.248C298.38 265.367 298.43 265.317 302.109 258.412L305.839 251.507H303.218H300.597L298.632 256.043C297.523 258.513 296.515 260.579 296.364 260.579C296.212 260.529 295.154 258.513 293.995 256.043L291.878 251.507H289.307C287.946 251.507 286.787 251.608 286.787 251.759Z" fill="#706457"/>
<path d="M198.836 285.831C195.056 287.998 196.165 292.131 200.752 293.139C201.659 293.29 202.969 293.794 203.776 294.147C206.548 295.609 204.935 299.389 201.558 299.389C200.046 299.389 197.576 297.675 197.576 296.566C197.576 296.163 197.223 295.861 196.77 295.861C195.661 295.861 196.316 297.826 197.879 299.238C199.743 300.901 203.725 300.85 205.389 299.137C206.901 297.675 207.052 295.256 205.691 293.895C205.187 293.391 203.524 292.584 202.062 292.131C198.383 291.072 197.979 290.72 198.181 289.006C198.483 286.032 202.969 285.579 204.582 288.351C205.036 289.157 205.54 289.812 205.792 289.812C206.497 289.812 206.145 287.897 205.237 286.788C204.179 285.478 200.399 284.923 198.836 285.831Z" fill="#706457"/>
<path d="M136.086 292.836C136.086 298.784 136.187 299.893 136.842 299.893C137.447 299.893 137.598 299.187 137.598 296.616V293.391L141.277 293.239C143.243 293.139 144.906 292.836 144.906 292.584C144.906 292.282 143.243 292.03 141.277 291.929L137.598 291.778V289.308V286.788H141.63C143.999 286.788 145.662 286.586 145.662 286.284C145.662 285.982 143.747 285.78 140.874 285.78H136.086V292.836Z" fill="#706457"/>
<path d="M151.005 286.234C150.854 286.486 149.644 289.359 148.384 292.685C147.124 295.961 145.965 298.935 145.814 299.237C145.663 299.59 145.915 299.893 146.318 299.893C146.772 299.893 147.376 299.036 147.78 297.725L148.536 295.608L151.812 295.457L155.138 295.306L155.844 297.473C156.247 298.683 156.953 299.691 157.406 299.792C158.011 299.893 157.558 298.381 155.541 292.987C153.021 286.486 151.862 284.772 151.005 286.234ZM153.425 290.921L154.685 294.348H151.963C150.451 294.348 149.191 294.248 149.191 294.096C149.191 293.996 149.594 292.786 150.098 291.475C150.652 290.165 151.207 288.602 151.409 288.098C151.862 286.838 151.913 286.939 153.425 290.921Z" fill="#706457"/>
<path d="M160.279 292.836C160.279 298.784 160.38 299.893 161.035 299.893C161.64 299.893 161.791 299.187 161.791 296.616V293.34L163.959 293.391C168.092 293.492 168.545 293.794 169.049 297.02C169.301 298.733 169.704 299.893 170.108 299.893C170.914 299.893 170.461 294.903 169.553 293.794C168.948 293.088 168.999 292.887 169.856 292.08C171.166 290.871 171.166 288.098 169.856 286.788C168.999 285.931 168.192 285.78 164.563 285.78H160.279V292.836ZM168.545 287.443C169.1 287.846 169.503 288.754 169.503 289.56C169.503 291.576 168.142 292.332 164.715 292.332H161.791V289.56V286.788H164.715C166.378 286.788 168.041 287.09 168.545 287.443Z" fill="#706457"/>
<path d="M173.887 292.836C173.887 298.784 173.988 299.893 174.643 299.893C175.248 299.893 175.399 298.885 175.399 293.693L175.449 287.544L177.768 293.744C179.481 298.33 180.237 299.893 180.842 299.792C181.296 299.691 182.455 297.423 183.766 293.844L185.933 288.048V293.945C185.983 298.885 186.134 299.893 186.739 299.893C187.394 299.893 187.495 298.784 187.495 292.786C187.495 285.83 187.495 285.73 186.437 285.881C185.53 285.982 184.975 287.09 183.362 291.576C182.253 294.6 181.145 297.322 180.943 297.524C180.741 297.776 179.582 295.205 178.373 291.879C176.407 286.536 176.004 285.78 175.046 285.78C173.887 285.78 173.887 285.83 173.887 292.836Z" fill="#706457"/>
<path d="M208.16 286.284C208.16 286.536 209.168 286.788 210.428 286.788H212.696V293.34C212.696 297.372 212.898 299.893 213.2 299.893C213.503 299.893 213.704 297.372 213.704 293.34V286.788H216.224C217.636 286.788 218.745 286.536 218.745 286.284C218.745 285.982 216.628 285.78 213.452 285.78C210.277 285.78 208.16 285.982 208.16 286.284Z" fill="#706457"/>
<path d="M223.08 286.234C222.928 286.486 221.719 289.359 220.459 292.685C219.199 295.961 218.039 298.935 217.888 299.237C217.737 299.59 217.989 299.893 218.392 299.893C218.846 299.893 219.451 299.036 219.854 297.725L220.61 295.608L223.886 295.457L227.213 295.306L227.918 297.473C228.321 298.683 229.027 299.691 229.481 299.792C230.085 299.893 229.632 298.381 227.616 292.987C225.096 286.486 223.936 284.772 223.08 286.234ZM225.499 290.921L226.759 294.348H224.037C222.525 294.348 221.265 294.248 221.265 294.096C221.265 293.996 221.668 292.786 222.172 291.475C222.727 290.165 223.281 288.602 223.483 288.098C223.936 286.838 223.987 286.939 225.499 290.921Z" fill="#706457"/>
<path d="M232.354 289.711C234.672 293.391 234.874 293.945 234.874 296.768C234.874 299.187 235.025 299.893 235.63 299.893C236.235 299.893 236.386 299.237 236.386 296.818C236.386 294.096 236.587 293.441 238.553 290.417C241.678 285.578 241.577 285.78 240.72 285.78C240.317 285.78 239.057 287.292 237.898 289.157C235.479 292.937 235.68 292.987 232.959 288.199C232.152 286.788 231.245 285.78 230.741 285.78C230.035 285.78 230.388 286.637 232.354 289.711Z" fill="#706457"/>
</svg>
