<svg width="940" height="899" viewBox="0 0 940 899" fill="none" xmlns="http://www.w3.org/2000/svg">
<path d="M357.2 50.8L247.2 101.4L172.8 191C115.2 260.2 98.6 281.4 100.4 283.4C101.8 285.2 108.4 286 122.4 286C140.8 286 142.6 285.6 147 281L152 276.2L152.2 321.6C152.4 346.6 153.2 418.2 153.8 481L155 595H471H787L788.2 470C788.8 401.2 789.6 329.6 789.8 310.6L790 276.2L795 281C799.4 285.6 801.2 286 819.6 286C833.6 286 840.2 285.2 841.6 283.4C843.4 281.4 826.8 260.4 769.2 191L694.6 101.4L584 50.6C523.2 22.8 472 3.05176e-05 470.2 0.200043C468.4 0.200043 417.6 23 357.2 50.8ZM598.6 65.2L690.2 107L750.8 180C784.2 220.2 816.2 258.6 821.8 265.4L832.4 278H816.6L801 277.8L734.2 200L667.4 122.2L571.6 81C519 58.4 474.6 39.4 473.2 38.8C471.8 38.2 426.6 56.8 372.8 80L274.6 122.2L207.8 200L141 277.8L125.4 278H109.6L118.4 267.6C123 262 155 223.6 189.2 182.2L251.6 107.2L361.2 57L471 6.60001L489 15C499 19.6 548.2 42.2 598.6 65.2ZM467 52.4C467.6 55 467.8 68 467.6 81.6L467 106.2L456.6 109.8C444 114 433.6 121.8 425.8 132.6L420 140.6L420.4 201.8L421 263L443.6 263.6L466 264.2V291V318H428.4H390.6L389.2 200.8C388.4 136.2 388.4 82.8 389.4 81.8C391 80.2 461.4 48.6 464.4 48.2C465.2 48 466.4 50 467 52.4ZM514.6 64.4L552.6 80.8L551.4 134.8C550.6 164.4 550 217.8 550 253.4V318H512H474V291V264.2L497.6 263.6L521 263L521.6 203.4C522 148 521.8 143.4 518.2 136.4C511 122.6 495.2 110.2 480.6 107L474 105.6V76.8C474 61 474.6 48 475.4 48C476.2 48 493.8 55.4 514.6 64.4ZM382 201V317.8L365.6 318.4L349 319L348.4 454.4L348 590H325.4H302.6L301.4 493.6C300.6 440.6 300 334.6 300 258.2V119L340.6 101.6C362.8 92 381.2 84.2 381.6 84C381.8 84 382 136.6 382 201ZM602 101.8L639 117.8L639.6 213.4C640 266 639.6 372.2 638.8 449.4L637.6 590H615.8H594L593.6 454.4L593 319L575.6 318.4L558 317.8V200.8C558 89.4 558.2 83.8 561.6 84.8C563.6 85.4 581.8 93.2 602 101.8ZM293.8 426.6L294 590L259.6 589.6L225 589L224.4 390.4L224 191.8L251.2 160.4C266.2 143.2 281.2 127.6 284.6 125.6L291 122.4L292.2 192.6C293 231.4 293.6 336.6 293.8 426.6ZM658.4 126.6C662.4 129 677 144.2 690.8 160.4L716 189.6L715.6 389.4L715 589L680.6 589.6L646 590V441.6C646 281.8 648 122 649.8 122C650.4 122 654.4 124 658.4 126.6ZM754.8 234.6L782 266.2L781.6 427.6L781 589L751.6 589.6L722 590.2V428.4C722 268.6 723.2 198.4 726 201.4C726.8 202.2 739.8 217.2 754.8 234.6ZM217.8 432.6L218 590.2L189.6 589.6L161 589L160.4 427.6L160 266.4L187.4 234.4L215 202.6L216.2 238.8C217 258.6 217.6 345.8 217.8 432.6ZM588 329C588 331.6 582.8 332 554.6 332.2C536 332.2 483.4 332.8 437.6 333.2C354.8 334 354 334 354 330C354 326 354.8 326 471 326C573.6 326 588 326.4 588 329ZM382.8 399L408 457.8L383.6 513.2C370 543.8 357.8 569 356.4 569.6C354.6 570.2 354 546 354 455.2C354 389.4 354.8 340 355.8 340C356.8 340 369 366.6 382.8 399ZM459.6 341.8C454.4 355.4 413 446 412 446C411 446 373.6 361 366.6 342.8C365.8 340.4 373.2 340 413 340C439 340 460 340.8 459.6 341.8ZM575.2 343.4C568.2 361.4 530.8 446 529.8 446C528.8 446 488.2 356.8 482.4 341.8C482 340.8 503 340 529 340C573 340 576.4 340.2 575.2 343.4ZM588 454.8C588 519.6 587.2 570.2 586.2 570.8C585.2 571.4 573 546.4 559.2 515L533.8 458.2L559.2 399C573 366.6 585.2 340 586.2 340C587.2 340 588 389.2 588 454.8ZM467 569.8C465 571.6 463.2 567.6 439 511.4L416 457.8L441.6 400.4L467 342.8L467.6 455.6C467.8 517.8 467.6 569.2 467 569.8ZM501.8 403.4L526 457.8L504.2 508.4C477.6 570.2 477.8 570 475.6 570C474.8 570 474 551.8 474 529.4C474 484.6 476.4 347.6 477.2 348.4C477.4 348.8 488.4 373.4 501.8 403.4ZM455.2 569.4C454.8 569.8 434.8 569.8 410.6 569.6L366.6 569L384.4 529C394.2 507 404.4 484 407.2 478L412.2 467L434 517.8C446.2 545.8 455.6 569 455.2 569.4ZM553.8 520.8C566 548 576 571 576 571.6C576 572.8 488.4 571 487 569.6C486.4 569.2 495.8 546.2 507.6 518.6C519.4 491 529.6 469 530.4 469.6C531.2 470.4 541.8 493.4 553.8 520.8ZM587 584V589L471.6 589.6L356 590V584V578L471.6 578.4L587 579V584Z" fill="black"/>
<path d="M324.6 704.2C308 709.2 296.2 731.6 298.8 753.4C301.4 776.4 313.6 789.6 333.8 791.4C349.6 792.8 362 787.2 369 775.2C376.2 762.8 375.6 760 366 760C359.2 760 357.6 760.8 355 766C351.4 773 346.4 776 338 776C324.2 776 317.2 766.2 317.4 746.8C317.6 727.8 324.6 718.2 338.6 718C346 718 356 724.8 356 730C356 731 360 732 365 732C372.4 732 374 731.4 374 728.2C374 722.8 365.8 711.8 358.6 707.4C351 703 333.6 701.4 324.6 704.2Z" fill="black"/>
<path d="M0 747V790H30H60V782V774H39H18V739V704H9H0V747Z" fill="black"/>
<path d="M80 747V790H89H98V747V704H89H80V747Z" fill="black"/>
<path d="M124 747V790H154H184V782V774H163H142V739V704H133H124V747Z" fill="black"/>
<path d="M231 706.4C224.4 723.6 202 787.4 202 788.4C202 789.4 206 790 210.8 790C219.4 790 219.8 789.8 222.4 781.4L225.4 773L241.4 772.4L257.4 771.8L260 781L262.6 790H272.4C281.8 790 282.2 789.8 280.8 785.4C280 783 273.4 763.8 266 743L252.4 705L242.2 704.4C235.2 704 231.6 704.6 231 706.4ZM247.8 741.8C250 749 252 755.6 252 756.4C252 757.2 247.6 758 242 758C235.6 758 232 757.2 232 755.6C232 750.6 240.8 726 242.2 727.4C242.8 728.4 245.4 734.8 247.8 741.8Z" fill="black"/>
<path d="M434.4 706.4C435 707.8 441.6 727.2 449.2 749.4L463 790H471.4C479.4 790 479.8 789.8 483 780.4C495.2 745.6 508 707.2 508 705.8C508 704.8 504 704 499.4 704H490.6L482 733.4C477.4 749.8 473 763.6 472.2 764.6C471.4 765.4 466.8 752 461.8 735L453 704H443.2C436.4 704 433.8 704.8 434.4 706.4Z" fill="black"/>
<path d="M545 706.4C538.4 723.6 516 787.4 516 788.4C516 789.4 520 790 524.8 790C533.4 790 533.8 789.8 536.4 781.4L539.4 773L555.4 772.4L571.4 771.8L574 781L576.6 790H586.4C595.8 790 596.2 789.8 594.8 785.4C594 783 587.4 763.8 580 743L566.4 705L556.2 704.4C549.2 704 545.6 704.6 545 706.4ZM561.8 741.8C564 749 566 755.6 566 756.4C566 757.2 561.6 758 556 758C549.6 758 546 757.2 546 755.6C546 750.6 554.8 726 556.2 727.4C556.8 728.4 559.4 734.8 561.8 741.8Z" fill="black"/>
<path d="M616 747V790H646H676V782V774H655H634V739V704H625H616V747Z" fill="black"/>
<path d="M700 747V790H730H760V782V774H739H718V739V704H709H700V747Z" fill="black"/>
<path d="M782 747V790H814H846V782V774H823H800V763V752H821H842V745V738H821H800V729V720H822H844V712V704H813H782V747Z" fill="black"/>
<path d="M864 705C864 705.6 870.4 717.2 878 731L892 756V773V790H901H910V774.4C910 759 910.2 758.8 924.8 731.4L939.6 704H929.2H918.8L911 722C906.6 731.8 902.6 740 902 740C901.4 739.8 897.2 731.8 892.6 722L884.2 704H874C868.6 704 864 704.4 864 705Z" fill="black"/>
<path d="M515 840.2C500 848.8 504.4 865.2 522.6 869.2C526.2 869.8 531.4 871.8 534.6 873.2C545.6 879 539.2 894 525.8 894C519.8 894 510 887.2 510 882.8C510 881.2 508.6 880 506.8 880C502.4 880 505 887.8 511.2 893.4C518.6 900 534.4 899.8 541 893C547 887.2 547.6 877.6 542.2 872.2C540.2 870.2 533.6 867 527.8 865.2C513.2 861 511.6 859.6 512.4 852.8C513.6 841 531.4 839.2 537.8 850.2C539.6 853.4 541.6 856 542.6 856C545.4 856 544 848.4 540.4 844C536.2 838.8 521.2 836.6 515 840.2Z" fill="black"/>
<path d="M266 868C266 891.6 266.4 896 269 896C271.4 896 272 893.2 272 883V870.2L286.6 869.6C294.4 869.2 301 868 301 867C301 865.8 294.4 864.8 286.6 864.4L272 863.8V854V844H288C297.4 844 304 843.2 304 842C304 840.8 296.4 840 285 840H266V868Z" fill="black"/>
<path d="M325.2 841.8C324.6 842.8 319.8 854.2 314.8 867.4C309.8 880.4 305.2 892.2 304.6 893.4C304 894.8 305 896 306.6 896C308.4 896 310.8 892.6 312.4 887.4L315.4 879L328.4 878.4L341.6 877.8L344.4 886.4C346 891.2 348.8 895.2 350.6 895.6C353 896 351.2 890 343.2 868.6C333.2 842.8 328.6 836 325.2 841.8ZM334.8 860.4L339.8 874H329C323 874 318 873.6 318 873C318 872.6 319.6 867.8 321.6 862.6C323.8 857.4 326 851.2 326.8 849.2C328.6 844.2 328.8 844.6 334.8 860.4Z" fill="black"/>
<path d="M362 868C362 891.6 362.4 896 365 896C367.4 896 368 893.2 368 883V870L376.6 870.2C393 870.6 394.8 871.8 396.8 884.6C397.8 891.4 399.4 896 401 896C404.2 896 402.4 876.2 398.8 871.8C396.4 869 396.6 868.2 400 865C405.2 860.2 405.2 849.2 400 844C396.6 840.6 393.4 840 379 840H362V868ZM394.8 846.6C397 848.2 398.6 851.8 398.6 855C398.6 863 393.2 866 379.6 866H368V855V844H379.6C386.2 844 392.8 845.2 394.8 846.6Z" fill="black"/>
<path d="M416 868C416 891.6 416.4 896 419 896C421.4 896 422 892 422 871.4L422.2 847L431.4 871.6C438.2 889.8 441.2 896 443.6 895.6C445.4 895.2 450 886.2 455.2 872L463.8 849V872.4C464 892 464.6 896 467 896C469.6 896 470 891.6 470 867.8C470 840.2 470 839.8 465.8 840.4C462.2 840.8 460 845.2 453.6 863C449.2 875 444.8 885.8 444 886.6C443.2 887.6 438.6 877.4 433.8 864.2C426 843 424.4 840 420.6 840C416 840 416 840.2 416 868Z" fill="black"/>
<path d="M552 842C552 843 556 844 561 844H570V870C570 886 570.8 896 572 896C573.2 896 574 886 574 870V844H584C589.6 844 594 843 594 842C594 840.8 585.6 840 573 840C560.4 840 552 840.8 552 842Z" fill="black"/>
<path d="M611.2 841.8C610.6 842.8 605.8 854.2 600.8 867.4C595.8 880.4 591.2 892.2 590.6 893.4C590 894.8 591 896 592.6 896C594.4 896 596.8 892.6 598.4 887.4L601.4 879L614.4 878.4L627.6 877.8L630.4 886.4C632 891.2 634.8 895.2 636.6 895.6C639 896 637.2 890 629.2 868.6C619.2 842.8 614.6 836 611.2 841.8ZM620.8 860.4L625.8 874H615C609 874 604 873.6 604 873C604 872.6 605.6 867.8 607.6 862.6C609.8 857.4 612 851.2 612.8 849.2C614.6 844.2 614.8 844.6 620.8 860.4Z" fill="black"/>
<path d="M648 855.6C657.2 870.2 658 872.4 658 883.6C658 893.2 658.6 896 661 896C663.4 896 664 893.4 664 883.8C664 873 664.8 870.4 672.6 858.4C685 839.2 684.6 840 681.2 840C679.6 840 674.6 846 670 853.4C660.4 868.4 661.2 868.6 650.4 849.6C647.2 844 643.6 840 641.6 840C638.8 840 640.2 843.4 648 855.6Z" fill="black"/>
</svg>
